<svg width="334" height="214" viewBox="0 0 334 214" fill="none" xmlns="http://www.w3.org/2000/svg">
<rect width="334" height="214" fill="white"/>
<g filter="url(#filter0_d_922_24921)">
<rect x="16" y="16" width="222" height="62" rx="4.93573" fill="white"/>
<rect x="16.4456" y="16.4456" width="221.109" height="61.1088" rx="4.49015" stroke="#00A6CA" stroke-width="0.891174"/>
</g>
<rect x="68.4456" y="67.4456" width="245.109" height="130.109" rx="4.49015" fill="white" stroke="#00A6CA" stroke-width="0.891174"/>
<path d="M29.85 51.66V57.34H28.47V58H32.03V57.34H30.64V51H28.63V51.66H29.85ZM35.8164 50.9C34.3664 50.9 33.2264 51.81 33.2264 53.31V55.71C33.2264 57.22 34.3664 58.12 35.8164 58.12C37.2464 58.12 38.3864 57.22 38.3864 55.71V53.31C38.3864 51.81 37.2464 50.9 35.8164 50.9ZM35.8164 57.39C34.9864 57.39 34.3364 56.98 34.1264 56.26C34.0564 56.05 34.0164 55.8 34.0164 55.51V53.51C34.0164 53.22 34.0564 52.97 34.1264 52.76C34.3364 52.04 34.9864 51.62 35.8164 51.62C36.6164 51.62 37.2864 52.04 37.4964 52.76C37.5664 52.97 37.6064 53.22 37.6064 53.51V55.51C37.6064 55.8 37.5664 56.05 37.4964 56.26C37.2864 56.98 36.6164 57.39 35.8164 57.39ZM39.6084 57.99H40.4284L43.8084 51H42.9884L39.6084 57.99ZM47.6129 50.9C46.1629 50.9 45.0229 51.81 45.0229 53.31V55.71C45.0229 57.22 46.1629 58.12 47.6129 58.12C49.0429 58.12 50.1829 57.22 50.1829 55.71V53.31C50.1829 51.81 49.0429 50.9 47.6129 50.9ZM47.6129 57.39C46.7829 57.39 46.1329 56.98 45.9229 56.26C45.8529 56.05 45.8129 55.8 45.8129 55.51V53.51C45.8129 53.22 45.8529 52.97 45.9229 52.76C46.1329 52.04 46.7829 51.62 47.6129 51.62C48.4129 51.62 49.0829 52.04 49.2929 52.76C49.3629 52.97 49.4029 53.22 49.4029 53.51V55.51C49.4029 55.8 49.3629 56.05 49.2929 56.26C49.0829 56.98 48.4129 57.39 47.6129 57.39ZM52.6449 51.75H55.9849V51H51.8849V54.38C52.3549 54.23 52.9849 54.16 53.6249 54.16C54.6149 54.16 55.5749 54.51 55.5749 55.8C55.5749 56.99 54.6849 57.37 53.9749 57.37C53.1749 57.37 52.5749 56.95 52.4849 56.18H51.6949C51.8049 57.45 52.7749 58.11 53.9849 58.11C55.4449 58.11 56.3949 57.19 56.3949 55.78C56.4449 54.06 55.1149 53.43 53.7149 53.43C53.3449 53.43 52.9949 53.47 52.6449 53.56V51.75ZM57.4057 57.99H58.2257L61.6057 51H60.7857L57.4057 57.99ZM64.7702 51.62C66.3602 51.62 66.3102 53.17 65.4602 54.21L62.5702 57.82V58H66.9802V57.26H63.9302L66.2102 54.45C66.7202 53.81 66.8802 53.11 66.8102 52.51C66.7302 51.62 66.0302 50.9 64.7902 50.9C63.4402 50.9 62.7702 51.58 62.7002 52.83H63.4002C63.4702 51.99 63.9302 51.62 64.7702 51.62ZM71.0301 50.9C69.5801 50.9 68.4401 51.81 68.4401 53.31V55.71C68.4401 57.22 69.5801 58.12 71.0301 58.12C72.4601 58.12 73.6001 57.22 73.6001 55.71V53.31C73.6001 51.81 72.4601 50.9 71.0301 50.9ZM71.0301 57.39C70.2001 57.39 69.5501 56.98 69.3401 56.26C69.2701 56.05 69.2301 55.8 69.2301 55.51V53.51C69.2301 53.22 69.2701 52.97 69.3401 52.76C69.5501 52.04 70.2001 51.62 71.0301 51.62C71.8301 51.62 72.5001 52.04 72.7101 52.76C72.7801 52.97 72.8201 53.22 72.8201 53.51V55.51C72.8201 55.8 72.7801 56.05 72.7101 56.26C72.5001 56.98 71.8301 57.39 71.0301 57.39ZM77.1721 51.62C78.7621 51.62 78.7121 53.17 77.8621 54.21L74.9721 57.82V58H79.3821V57.26H76.3321L78.6121 54.45C79.1221 53.81 79.2821 53.11 79.2121 52.51C79.1321 51.62 78.4321 50.9 77.1921 50.9C75.8421 50.9 75.1721 51.58 75.1021 52.83H75.8021C75.8721 51.99 76.3321 51.62 77.1721 51.62ZM82.792 51.62C84.382 51.62 84.332 53.17 83.482 54.21L80.592 57.82V58H85.002V57.26H81.952L84.232 54.45C84.742 53.81 84.902 53.11 84.832 52.51C84.752 51.62 84.052 50.9 82.812 50.9C81.462 50.9 80.792 51.58 80.722 52.83H81.422C81.492 51.99 81.952 51.62 82.792 51.62Z" fill="#2C2C2C"/>
<path d="M28.552 32.812C28.552 35.512 30.532 37.084 32.812 37.084C34.516 37.084 36.244 36.184 36.664 34.132H35.308C34.936 35.248 33.964 35.812 32.812 35.812C31.096 35.812 29.956 34.48 29.956 32.812C29.956 31.024 31.096 29.776 32.812 29.776C33.916 29.788 34.852 30.268 35.272 31.312H36.616C36.172 29.416 34.468 28.504 32.824 28.504C30.532 28.504 28.552 30.1 28.552 32.812ZM43.6692 37V33.58C43.6692 32.092 42.9732 31.084 41.3772 31.084C40.6092 31.084 40.0092 31.264 39.5172 31.924V28.228H38.2092V37H39.5172V33.652C39.5172 32.704 40.1532 32.128 41.0052 32.128C41.8212 32.14 42.3612 32.62 42.3492 33.58V37H43.6692ZM49.295 36.028C49.331 37.168 50.039 37.168 50.951 37.012L50.927 36.268C50.303 36.328 50.327 35.98 50.327 35.44V33.16C50.327 31.564 49.079 31.072 47.675 31.072C46.907 31.072 46.127 31.228 45.539 31.528L45.731 32.464C46.451 32.104 49.055 31.6 49.055 33.124V33.7C48.539 33.412 47.903 33.268 47.339 33.268C46.067 33.268 45.059 33.928 45.095 35.308C45.095 36.436 46.115 37.108 47.171 37.108C47.987 37.108 48.911 36.796 49.295 36.028ZM49.055 35.02C48.923 35.752 48.119 36.076 47.435 36.076C46.907 36.076 46.379 35.812 46.379 35.236C46.379 34.528 46.919 34.156 47.555 34.144C48.071 34.132 48.623 34.288 49.055 34.54V35.02ZM58.017 37V33.604C58.017 32.176 57.297 31.096 55.725 31.096C54.969 31.096 54.081 31.372 53.757 32.104C53.757 31 52.785 31.048 51.945 31.204V32.056C52.533 32.02 52.557 32.212 52.557 32.896V37H53.877V33.712C53.877 32.776 54.525 32.14 55.341 32.14C56.121 32.152 56.709 32.704 56.697 33.604V37H58.017ZM63.9023 37.336C63.9023 38.68 63.2423 39.136 62.3423 39.148C61.6703 39.16 60.8783 38.908 60.1343 38.548L59.9423 39.604C60.7223 40.036 61.5863 40.264 62.3783 40.252C63.8903 40.24 65.1623 39.364 65.1623 37.36V31.684C64.4063 31.36 63.6023 31.156 62.7743 31.144C60.9983 31.108 59.5343 32.056 59.5343 34.156C59.5343 36.064 60.6743 37.192 62.1503 37.204C62.7023 37.204 63.3023 37.06 63.9023 36.724V37.336ZM63.8783 35.62C63.3983 35.932 62.9063 36.088 62.4503 36.076C61.5503 36.064 60.8423 35.416 60.8423 34.156C60.8543 32.86 61.5503 32.236 62.6543 32.236C63.0623 32.236 63.4703 32.308 63.8783 32.452V35.62ZM69.7115 31.084C68.1395 31.084 66.7475 32.056 66.7115 33.988C66.6515 35.944 68.0555 37.168 69.9635 37.132C70.6955 37.132 71.4755 36.94 72.1475 36.64L71.9795 35.668C71.2955 35.968 70.5995 36.064 69.8795 36.028C68.8235 36.028 67.9955 35.404 67.9955 34.348H72.2675C72.6515 32.428 71.7395 31.084 69.7115 31.084ZM69.6995 32.092C70.5275 32.092 71.2475 32.548 71.2115 33.424H68.0195C68.1995 32.512 68.8355 32.092 69.6995 32.092ZM77.0526 29.428C77.0526 29.956 77.4606 30.22 77.8566 30.208C78.2406 30.196 78.6246 29.944 78.6246 29.428C78.6246 28.924 78.2406 28.66 77.8446 28.66C77.4486 28.66 77.0526 28.912 77.0526 29.428ZM78.4926 31.276H77.1846V37H78.4926V31.276ZM86.0998 37V33.604C86.0998 32.176 85.3798 31.096 83.8078 31.096C83.0518 31.096 82.1638 31.372 81.8398 32.104C81.8398 31 80.8678 31.048 80.0278 31.204V32.056C80.6158 32.02 80.6398 32.212 80.6398 32.896V37H81.9598V33.712C81.9598 32.776 82.6078 32.14 83.4238 32.14C84.2038 32.152 84.7918 32.704 84.7798 33.604V37H86.0998ZM96.1218 35.26L96.9498 37H98.4018V36.82L94.5378 28.54H93.8898L90.0018 36.82V37H91.4658L92.2818 35.26H96.1218ZM94.2138 30.724L95.6778 34.084H92.7378L94.2138 30.724ZM103.661 36.112C103.661 37.084 104.453 37.168 105.353 37.012L105.329 36.112C104.669 36.112 104.729 35.86 104.729 35.2V28.216H103.421V31.576C102.893 31.264 102.329 31.132 101.813 31.132C100.325 31.132 99.0773 32.308 99.0773 34.096C99.0773 35.716 100.013 37.156 101.741 37.12C102.593 37.12 103.277 36.796 103.661 35.944V36.112ZM103.445 34.348C103.445 35.224 102.845 35.956 101.945 35.956C100.877 35.956 100.373 35.092 100.373 34.096C100.373 32.92 101.117 32.284 102.017 32.272C102.473 32.26 102.977 32.404 103.445 32.728V34.348ZM111.061 36.112C111.061 37.084 111.853 37.168 112.753 37.012L112.729 36.112C112.069 36.112 112.129 35.86 112.129 35.2V28.216H110.821V31.576C110.293 31.264 109.729 31.132 109.213 31.132C107.725 31.132 106.477 32.308 106.477 34.096C106.477 35.716 107.413 37.156 109.141 37.12C109.993 37.12 110.677 36.796 111.061 35.944V36.112ZM110.845 34.348C110.845 35.224 110.245 35.956 109.345 35.956C108.277 35.956 107.773 35.092 107.773 34.096C107.773 32.92 108.517 32.284 109.417 32.272C109.873 32.26 110.377 32.404 110.845 32.728V34.348ZM115.712 32.056C115.652 31.12 114.716 30.976 113.864 31.168L113.876 32.056C114.5 32.02 114.5 32.284 114.5 32.8V37H115.796V33.652C115.796 32.716 116.492 32.212 117.272 32.212C117.692 32.212 118.076 32.332 118.424 32.56L118.748 31.432C118.376 31.156 117.896 31.012 117.416 31.024C116.708 31.024 115.94 31.384 115.712 32.056ZM122.45 31.084C120.878 31.084 119.486 32.056 119.45 33.988C119.39 35.944 120.794 37.168 122.702 37.132C123.434 37.132 124.214 36.94 124.886 36.64L124.718 35.668C124.034 35.968 123.338 36.064 122.618 36.028C121.562 36.028 120.734 35.404 120.734 34.348H125.006C125.39 32.428 124.478 31.084 122.45 31.084ZM122.438 32.092C123.266 32.092 123.986 32.548 123.95 33.424H120.758C120.938 32.512 121.574 32.092 122.438 32.092ZM126.251 35.296C126.347 36.736 127.619 37.144 128.903 37.144C130.187 37.144 131.423 36.592 131.423 35.308C131.423 33.94 130.247 33.736 129.035 33.58C128.135 33.472 127.667 33.364 127.655 32.884C127.619 32.368 128.243 32.08 128.843 32.08C129.455 32.08 130.151 32.26 130.151 32.836H131.303C131.339 31.684 130.175 31.096 128.843 31.096C127.583 31.096 126.383 31.672 126.383 32.908C126.419 34.216 127.751 34.348 128.939 34.504C129.695 34.6 130.235 34.756 130.235 35.284C130.199 35.992 129.491 36.172 128.855 36.172C128.231 36.172 127.571 35.896 127.535 35.296H126.251ZM132.585 35.296C132.681 36.736 133.953 37.144 135.237 37.144C136.521 37.144 137.757 36.592 137.757 35.308C137.757 33.94 136.581 33.736 135.369 33.58C134.469 33.472 134.001 33.364 133.989 32.884C133.953 32.368 134.577 32.08 135.177 32.08C135.789 32.08 136.485 32.26 136.485 32.836H137.637C137.673 31.684 136.509 31.096 135.177 31.096C133.917 31.096 132.717 31.672 132.717 32.908C132.753 34.216 134.085 34.348 135.273 34.504C136.029 34.6 136.569 34.756 136.569 35.284C136.533 35.992 135.825 36.172 135.189 36.172C134.565 36.172 133.905 35.896 133.869 35.296H132.585Z" fill="#2C2C2C"/>
<path d="M94.552 87.812C94.552 90.512 96.532 92.084 98.812 92.084C100.516 92.084 102.244 91.184 102.664 89.132H101.308C100.936 90.248 99.964 90.812 98.812 90.812C97.096 90.812 95.956 89.48 95.956 87.812C95.956 86.024 97.096 84.776 98.812 84.776C99.916 84.788 100.852 85.268 101.272 86.312H102.616C102.172 84.416 100.468 83.504 98.824 83.504C96.532 83.504 94.552 85.1 94.552 87.812ZM111.037 92V83.6H109.633V86.972H105.793V83.6H104.401V92H105.793V88.256H109.633V92H111.037ZM118.448 90.26L119.276 92H120.728V91.82L116.864 83.54H116.216L112.328 91.82V92H113.792L114.608 90.26H118.448ZM116.54 85.724L118.004 89.084H115.064L116.54 85.724ZM128.457 92.012H128.937V83.6H127.545V86.66L127.641 89.228L122.541 83.576H122.037V92H123.417V88.952L123.321 86.288L128.457 92.012ZM130.774 87.788C130.774 90.488 132.718 92.108 135.01 92.108C136.666 92.108 138.106 91.34 138.742 89.744C139.018 89.012 139.078 88.268 139.042 87.464H135.106V88.652H137.722C137.494 90.26 136.45 90.836 135.01 90.836C133.282 90.836 132.19 89.564 132.19 87.788C132.19 86.108 133.246 84.752 135.01 84.752C136.126 84.752 136.942 85.148 137.41 86.12H138.79C138.274 84.26 136.69 83.492 135.022 83.492C132.766 83.492 130.774 85.1 130.774 87.788ZM145.911 83.6H140.799V92H145.983V90.728H142.203V88.28H145.707V87.044H142.203V84.824H145.911V83.6ZM153.376 90.872V84.716H154.6V83.6H150.76V84.716H151.984V90.872H150.652V92H154.708V90.872H153.376ZM162.892 92.012H163.372V83.6H161.98V86.66L162.076 89.228L156.976 83.576H156.472V92H157.852V88.952L157.756 86.288L162.892 92.012ZM171.219 87.404L170.211 85.472L169.083 83.6H167.583V83.804L170.547 88.592V92H171.939V88.592L174.891 83.804V83.6H173.403L172.311 85.412L171.267 87.404H171.219ZM183.947 87.8C183.947 85.064 181.967 83.456 179.675 83.456C177.395 83.456 175.391 85.064 175.391 87.8C175.391 90.536 177.347 92.144 179.651 92.144C182.183 92.144 183.947 90.356 183.947 87.8ZM176.807 87.8C176.807 85.856 178.103 84.764 179.687 84.764C181.259 84.764 182.555 85.88 182.555 87.8C182.555 89.756 181.247 90.824 179.675 90.824C178.091 90.824 176.807 89.756 176.807 87.8ZM188.983 92.108C190.771 92.108 192.235 91.052 192.235 89.18V83.6H190.855V89.144C190.855 90.248 190.039 90.86 188.983 90.86C187.915 90.86 187.087 90.248 187.087 89.144V83.6H185.695V89.18C185.695 91.052 187.171 92.108 188.983 92.108ZM199.1 88.856C200.168 88.472 200.864 87.5 200.864 86.336C200.864 84.836 199.772 83.6 197.948 83.6H194.48V92H195.884V89.072H197.732L199.82 92H201.236V91.796L199.1 88.856ZM195.86 87.92V84.812H197.936C198.86 84.812 199.508 85.472 199.508 86.348C199.508 87.26 198.848 87.92 197.936 87.92H195.86ZM205.66 87.812C205.66 90.512 207.64 92.084 209.92 92.084C211.624 92.084 213.352 91.184 213.772 89.132H212.416C212.044 90.248 211.072 90.812 209.92 90.812C208.204 90.812 207.064 89.48 207.064 87.812C207.064 86.024 208.204 84.776 209.92 84.776C211.024 84.788 211.96 85.268 212.38 86.312H213.724C213.28 84.416 211.576 83.504 209.932 83.504C207.64 83.504 205.66 85.1 205.66 87.812ZM217.669 90.872V84.716H218.893V83.6H215.053V84.716H216.277V90.872H214.945V92H219.001V90.872H217.669ZM226.813 85.964C226.813 84.38 225.697 83.6 224.173 83.6H220.765V92H224.521C226.153 92 227.185 91.028 227.185 89.528C227.185 88.58 226.705 87.884 225.829 87.584C226.489 87.26 226.813 86.672 226.813 85.964ZM224.077 84.812C224.893 84.812 225.445 85.172 225.445 86C225.433 86.816 224.881 87.128 224.077 87.128H222.157V84.812H224.077ZM224.281 88.268C224.665 88.268 225.049 88.292 225.373 88.532C225.661 88.772 225.805 89.108 225.805 89.528C225.769 90.332 225.217 90.776 224.437 90.776H222.157V88.268H224.281ZM231.192 90.872V84.716H232.416V83.6H228.576V84.716H229.8V90.872H228.468V92H232.524V90.872H231.192ZM235.692 83.6H234.288V92H239.304V90.74H235.692V83.6ZM243.17 89.612C243.206 91.376 244.922 92.192 246.566 92.156C248.138 92.156 249.878 91.46 249.878 89.612C249.878 87.68 248.318 87.344 246.614 87.152C245.642 87.02 244.694 86.9 244.694 85.952C244.694 85.004 245.69 84.692 246.458 84.692C247.286 84.692 248.234 84.98 248.294 85.88H249.614C249.578 84.164 248.066 83.444 246.47 83.444C244.838 83.444 243.314 84.26 243.314 85.988C243.314 87.668 244.838 88.16 246.374 88.292C247.346 88.388 248.486 88.496 248.486 89.6C248.486 90.644 247.43 90.908 246.542 90.908C245.63 90.908 244.598 90.56 244.538 89.612H243.17ZM251.191 87.812C251.191 90.512 253.171 92.084 255.451 92.084C257.155 92.084 258.883 91.184 259.303 89.132H257.947C257.575 90.248 256.603 90.812 255.451 90.812C253.735 90.812 252.595 89.48 252.595 87.812C252.595 86.024 253.735 84.776 255.451 84.776C256.555 84.788 257.491 85.268 257.911 86.312H259.255C258.811 84.416 257.107 83.504 255.463 83.504C253.171 83.504 251.191 85.1 251.191 87.812ZM269.105 87.8C269.105 85.064 267.125 83.456 264.833 83.456C262.553 83.456 260.549 85.064 260.549 87.8C260.549 90.536 262.505 92.144 264.809 92.144C267.341 92.144 269.105 90.356 269.105 87.8ZM261.965 87.8C261.965 85.856 263.261 84.764 264.845 84.764C266.417 84.764 267.713 85.88 267.713 87.8C267.713 89.756 266.405 90.824 264.833 90.824C263.249 90.824 261.965 89.756 261.965 87.8ZM275.557 88.856C276.625 88.472 277.321 87.5 277.321 86.336C277.321 84.836 276.229 83.6 274.405 83.6H270.937V92H272.341V89.072H274.189L276.277 92H277.693V91.796L275.557 88.856ZM272.317 87.92V84.812H274.393C275.317 84.812 275.965 85.472 275.965 86.348C275.965 87.26 275.305 87.92 274.393 87.92H272.317ZM284.469 83.6H279.357V92H284.541V90.728H280.761V88.28H284.265V87.044H280.761V84.824H284.469V83.6ZM287.098 92.168C287.53 92.168 287.89 91.868 287.89 91.436C287.89 90.968 287.53 90.704 287.098 90.704C286.654 90.704 286.306 90.968 286.306 91.436C286.306 91.868 286.654 92.168 287.098 92.168ZM286.498 90.068H287.746L287.818 83.588H286.39L286.498 90.068Z" fill="#2C2C2C"/>
<path d="M206.062 167.631C206.062 163.633 204.479 159.8 201.66 156.973C198.841 154.147 195.018 152.559 191.031 152.559C187.045 152.559 183.221 154.147 180.403 156.973C177.584 159.8 176 163.633 176 167.631L191.031 167.631H206.062Z" fill="#EDEDED"/>
<path d="M203.365 128.12L188.388 160.82C187.768 162.176 188.4 163.777 189.78 164.343C191.159 164.908 192.73 164.21 193.234 162.807L205.393 128.951C205.592 128.398 205.32 127.785 204.776 127.562C204.232 127.339 203.61 127.585 203.365 128.12Z" fill="#2C2C2C"/>
<g opacity="0.5">
<path d="M128 177.726C128.056 179.25 129.184 180.188 130.646 180.188C132.411 180.188 133.393 178.889 133.393 177.488C133.393 176.393 132.824 175.354 131.573 175.139L133.27 172.384V172.147H128.301V173.491H131.059L129.619 175.998V176.235C130.624 176.054 131.785 176.235 131.819 177.5C131.808 178.223 131.35 178.731 130.624 178.731C129.954 178.731 129.507 178.392 129.463 177.726H128Z" fill="black"/>
<path d="M137.627 172C136.007 172 134.701 173.016 134.701 174.722V177.477C134.701 179.194 136.007 180.199 137.627 180.199C139.223 180.199 140.53 179.194 140.53 177.477V174.722C140.53 173.016 139.223 172 137.627 172ZM137.627 178.719C136.912 178.719 136.387 178.347 136.309 177.658C136.287 177.466 136.275 177.263 136.275 177.025V175.185C136.275 174.959 136.287 174.744 136.309 174.541C136.387 173.829 136.912 173.479 137.627 173.479C138.308 173.479 138.855 173.829 138.933 174.541C138.955 174.744 138.966 174.959 138.966 175.185V177.025C138.966 177.263 138.955 177.466 138.933 177.658C138.855 178.347 138.308 178.719 137.627 178.719Z" fill="black"/>
<path d="M144.911 172C143.292 172 141.985 173.016 141.985 174.722V177.477C141.985 179.194 143.292 180.199 144.911 180.199C146.507 180.199 147.814 179.194 147.814 177.477V174.722C147.814 173.016 146.507 172 144.911 172ZM144.911 178.719C144.196 178.719 143.671 178.347 143.593 177.658C143.571 177.466 143.56 177.263 143.56 177.025V175.185C143.56 174.959 143.571 174.744 143.593 174.541C143.671 173.829 144.196 173.479 144.911 173.479C145.592 173.479 146.139 173.829 146.217 174.541C146.239 174.744 146.251 174.959 146.251 175.185V177.025C146.251 177.263 146.239 177.466 146.217 177.658C146.139 178.347 145.592 178.719 144.911 178.719Z" fill="black"/>
</g>
<path d="M128 169.174C128 152.685 134.55 136.87 146.21 125.21C157.87 113.55 173.685 107 190.174 107V113.217C175.334 113.217 161.101 119.113 150.607 129.607C140.113 140.101 134.217 154.334 134.217 169.174H128Z" fill="#E15825"/>
<path d="M191.798 107C199.472 107.158 207.049 108.755 214.145 111.708L211.783 117.487C205.398 114.829 198.578 113.392 191.672 113.25L191.798 107Z" fill="#F18200"/>
<path d="M215.079 112.244C221.987 115.314 228.275 119.665 233.623 125.076L229.338 129.473C224.525 124.603 218.866 120.687 212.648 117.924L215.079 112.244Z" fill="#FCD800"/>
<path d="M234.926 125.728C240.092 131.31 244.221 137.85 247.105 145.014L241.586 147.451C238.991 141.004 235.274 135.118 230.625 130.093L234.926 125.728Z" fill="#A9D161"/>
<path d="M247.857 146.701C250.787 153.85 252.309 161.461 252.347 169.145L245.9 169.174C245.866 162.258 244.496 155.409 241.859 148.975L247.857 146.701Z" fill="#009900"/>
<path d="M236.94 179.372L239.072 176.01C239.399 175.506 239.568 175.043 239.579 174.426C239.579 172.781 238.355 172 236.793 172C235.22 172 233.996 172.781 233.996 174.426C233.996 175.938 235.051 176.801 236.571 176.75C236.708 176.75 236.867 176.709 236.983 176.657L235.22 179.372H236.94ZM236.793 173.306C237.552 173.306 238.017 173.696 238.017 174.426C238.017 175.167 237.552 175.578 236.793 175.578C236.033 175.578 235.558 175.167 235.558 174.426C235.558 173.696 236.033 173.306 236.793 173.306Z" fill="#808080"/>
<path d="M243.499 172.051C241.968 172.051 240.734 172.977 240.734 174.529V177.038C240.734 178.601 241.968 179.516 243.499 179.516C245.008 179.516 246.242 178.601 246.242 177.038V174.529C246.242 172.977 245.008 172.051 243.499 172.051ZM243.499 178.169C242.823 178.169 242.327 177.829 242.253 177.202C242.232 177.028 242.222 176.842 242.222 176.627V174.951C242.222 174.745 242.232 174.55 242.253 174.365C242.327 173.717 242.823 173.398 243.499 173.398C244.142 173.398 244.659 173.717 244.733 174.365C244.754 174.55 244.765 174.745 244.765 174.951V176.627C244.765 176.842 244.754 177.028 244.733 177.202C244.659 177.829 244.142 178.169 243.499 178.169Z" fill="#808080"/>
<path d="M250.383 172.051C248.853 172.051 247.618 172.977 247.618 174.529V177.038C247.618 178.601 248.853 179.516 250.383 179.516C251.892 179.516 253.127 178.601 253.127 177.038V174.529C253.127 172.977 251.892 172.051 250.383 172.051ZM250.383 178.169C249.707 178.169 249.211 177.829 249.138 177.202C249.116 177.028 249.106 176.842 249.106 176.627V174.951C249.106 174.745 249.116 174.55 249.138 174.365C249.211 173.717 249.707 173.398 250.383 173.398C251.027 173.398 251.544 173.717 251.618 174.365C251.639 174.55 251.649 174.745 251.649 174.951V176.627C251.649 176.842 251.639 177.028 251.618 177.202C251.544 177.829 251.027 178.169 250.383 178.169Z" fill="#808080"/>
<defs>
<filter id="filter0_d_922_24921" x="12.7095" y="12.7095" width="238.452" height="78.4524" filterUnits="userSpaceOnUse" color-interpolation-filters="sRGB">
<feFlood flood-opacity="0" result="BackgroundImageFix"/>
<feColorMatrix in="SourceAlpha" type="matrix" values="0 0 0 0 0 0 0 0 0 0 0 0 0 0 0 0 0 0 127 0" result="hardAlpha"/>
<feOffset dx="4.93573" dy="4.93573"/>
<feGaussianBlur stdDeviation="4.11311"/>
<feComposite in2="hardAlpha" operator="out"/>
<feColorMatrix type="matrix" values="0 0 0 0 0.102778 0 0 0 0 0.37 0 0 0 0 0.770833 0 0 0 0.16 0"/>
<feBlend mode="normal" in2="BackgroundImageFix" result="effect1_dropShadow_922_24921"/>
<feBlend mode="normal" in="SourceGraphic" in2="effect1_dropShadow_922_24921" result="shape"/>
</filter>
</defs>
</svg>
