<svg width="334" height="214" viewBox="0 0 334 214" fill="none" xmlns="http://www.w3.org/2000/svg">
<rect width="334" height="214" fill="white"/>
<path d="M21.4659 16.3416H176.534C179.364 16.3416 181.658 18.6358 181.658 21.4659V152.534C181.658 155.364 179.364 157.658 176.534 157.658H21.4659C18.6358 157.658 16.3416 155.364 16.3416 152.534V21.4659C16.3416 18.6358 18.6358 16.3416 21.4659 16.3416Z" fill="white" stroke="#B8C9E9" stroke-width="0.683234"/>
<path d="M38.7278 31.812C38.7278 34.512 40.7078 36.084 42.9878 36.084C44.6918 36.084 46.4198 35.184 46.8398 33.132H45.4838C45.1118 34.248 44.1398 34.812 42.9878 34.812C41.2718 34.812 40.1318 33.48 40.1318 31.812C40.1318 30.024 41.2718 28.776 42.9878 28.776C44.0918 28.788 45.0278 29.268 45.4478 30.312H46.7918C46.3478 28.416 44.6438 27.504 42.9998 27.504C40.7078 27.504 38.7278 29.1 38.7278 31.812ZM52.105 30.216V33.528C52.105 34.452 51.469 35.052 50.641 35.052C49.873 35.052 49.381 34.488 49.393 33.564V30.216H48.073V33.564C48.073 34.98 48.637 36.096 50.233 36.096C51.049 36.096 51.841 35.844 52.237 35.064C52.237 36.312 53.293 36.156 54.037 36.024L54.025 35.172C53.473 35.232 53.413 35.04 53.413 34.344V30.216H52.105ZM56.7211 31.056C56.6611 30.12 55.7251 29.976 54.8731 30.168L54.8851 31.056C55.5091 31.02 55.5091 31.284 55.5091 31.8V36H56.8051V32.652C56.8051 31.716 57.5011 31.212 58.2811 31.212C58.7011 31.212 59.0851 31.332 59.4331 31.56L59.7571 30.432C59.3851 30.156 58.9051 30.012 58.4251 30.024C57.7171 30.024 56.9491 30.384 56.7211 31.056ZM62.1469 31.056C62.0869 30.12 61.1509 29.976 60.2989 30.168L60.3109 31.056C60.9349 31.02 60.9349 31.284 60.9349 31.8V36H62.2309V32.652C62.2309 31.716 62.9269 31.212 63.7069 31.212C64.1269 31.212 64.5109 31.332 64.8589 31.56L65.1829 30.432C64.8109 30.156 64.3309 30.012 63.8509 30.024C63.1429 30.024 62.3749 30.384 62.1469 31.056ZM68.6443 30.084C67.0723 30.084 65.6803 31.056 65.6443 32.988C65.5843 34.944 66.9883 36.168 68.8963 36.132C69.6283 36.132 70.4083 35.94 71.0803 35.64L70.9123 34.668C70.2283 34.968 69.5323 35.064 68.8123 35.028C67.7563 35.028 66.9283 34.404 66.9283 33.348H71.2003C71.5843 31.428 70.6723 30.084 68.6443 30.084ZM68.6323 31.092C69.4603 31.092 70.1803 31.548 70.1443 32.424H66.9523C67.1323 31.512 67.7683 31.092 68.6323 31.092ZM78.2657 36V32.604C78.2657 31.176 77.5457 30.096 75.9737 30.096C75.2177 30.096 74.3297 30.372 74.0057 31.104C74.0057 30 73.0337 30.048 72.1937 30.204V31.056C72.7817 31.02 72.8057 31.212 72.8057 31.896V36H74.1257V32.712C74.1257 31.776 74.7737 31.14 75.5897 31.14C76.3697 31.152 76.9577 31.704 76.9457 32.604V36H78.2657ZM81.6808 28.44H80.5288L80.3968 30.228H79.2208V31.08L80.3968 31.164V33.792C80.3968 36.06 81.9448 36.516 83.9248 35.904L83.7928 34.92C82.6048 35.34 81.6808 35.244 81.6808 33.768V31.164H83.6848V30.228H81.6808V28.44ZM124.837 33.612C124.873 35.376 126.589 36.192 128.233 36.156C129.805 36.156 131.545 35.46 131.545 33.612C131.545 31.68 129.985 31.344 128.281 31.152C127.309 31.02 126.361 30.9 126.361 29.952C126.361 29.004 127.357 28.692 128.125 28.692C128.953 28.692 129.901 28.98 129.961 29.88H131.281C131.245 28.164 129.733 27.444 128.137 27.444C126.505 27.444 124.981 28.26 124.981 29.988C124.981 31.668 126.505 32.16 128.041 32.292C129.013 32.388 130.153 32.496 130.153 33.6C130.153 34.644 129.097 34.908 128.209 34.908C127.297 34.908 126.265 34.56 126.205 33.612H124.837ZM138.402 32.136C138.09 30.72 136.854 30.036 135.594 30.048C134.094 30.06 132.558 31.092 132.558 33.084C132.558 35.088 134.094 36.096 135.606 36.096C136.878 36.096 138.138 35.376 138.438 33.912H137.19C136.926 34.62 136.278 34.968 135.63 34.968C134.754 34.968 133.854 34.332 133.854 33.084C133.854 31.86 134.766 31.212 135.654 31.212C136.326 31.212 136.938 31.512 137.19 32.136H138.402ZM145.452 33.084C145.452 31.056 143.892 30.048 142.344 30.072C140.832 30.096 139.344 31.092 139.344 33.084C139.344 35.1 140.868 36.108 142.392 36.108C143.916 36.108 145.452 35.1 145.452 33.084ZM140.64 33.084C140.64 31.86 141.48 31.248 142.344 31.224C143.232 31.2 144.144 31.824 144.144 33.084C144.144 34.32 143.28 34.944 142.416 34.956C141.528 34.968 140.64 34.344 140.64 33.084ZM148.209 31.056C148.149 30.12 147.213 29.976 146.361 30.168L146.373 31.056C146.997 31.02 146.997 31.284 146.997 31.8V36H148.293V32.652C148.293 31.716 148.989 31.212 149.769 31.212C150.189 31.212 150.573 31.332 150.921 31.56L151.245 30.432C150.873 30.156 150.393 30.012 149.913 30.024C149.205 30.024 148.437 30.384 148.209 31.056ZM154.707 30.084C153.135 30.084 151.743 31.056 151.707 32.988C151.647 34.944 153.051 36.168 154.959 36.132C155.691 36.132 156.471 35.94 157.143 35.64L156.975 34.668C156.291 34.968 155.595 35.064 154.875 35.028C153.819 35.028 152.991 34.404 152.991 33.348H157.263C157.647 31.428 156.735 30.084 154.707 30.084ZM154.695 31.092C155.523 31.092 156.243 31.548 156.207 32.424H153.015C153.195 31.512 153.831 31.092 154.695 31.092Z" fill="black"/>
<path d="M87.6642 31.812C87.6642 34.596 89.7522 36.084 91.9602 36.084C93.7122 36.084 95.5002 35.16 95.8602 32.94H94.1322C93.8442 33.96 92.9922 34.452 91.9482 34.452C90.4482 34.452 89.4762 33.252 89.4762 31.812C89.4762 30.216 90.4722 29.136 91.9602 29.136C92.9682 29.136 93.7242 29.556 94.0962 30.504H95.8362C95.4522 28.428 93.6522 27.516 91.9602 27.516C89.7522 27.48 87.6642 29.016 87.6642 31.812ZM99.8171 34.572V28.992H100.909V27.6H96.9251V28.992H98.0171V34.572H96.8291V36H101.005V34.572H99.8171ZM108.739 30.096C108.739 28.524 107.635 27.612 106.099 27.612H102.535V36H106.435C108.115 36 109.099 34.992 109.099 33.516C109.099 32.652 108.679 31.968 107.899 31.644C108.427 31.32 108.739 30.708 108.739 30.096ZM105.967 29.148C106.591 29.148 106.987 29.544 106.975 30.156C106.963 30.72 106.579 31.056 105.967 31.056H104.323V29.148H105.967ZM106.231 32.52C106.507 32.52 106.747 32.544 106.951 32.688C107.203 32.868 107.335 33.18 107.323 33.516C107.287 34.08 106.927 34.44 106.315 34.44H104.323V32.52H106.231ZM113.083 34.572V28.992H114.175V27.6H110.191V28.992H111.283V34.572H110.095V36H114.271V34.572H113.083ZM117.588 27.6H115.788V36H121.092V34.392H117.588V27.6Z" fill="#3EA3CE"/>
<g opacity="0.5">
<path d="M36 124.111C36.0558 125.636 37.1836 126.573 38.6464 126.573C40.4106 126.573 41.3932 125.275 41.3932 123.874C41.3932 122.779 40.8237 121.74 39.5731 121.525L41.2704 118.77V118.533H36.3015V119.876H39.0595L37.6191 122.384V122.621C38.624 122.44 39.7853 122.621 39.8188 123.885C39.8076 124.608 39.3498 125.116 38.624 125.116C37.9541 125.116 37.5074 124.778 37.4628 124.111H36Z" fill="black"/>
<path d="M45.6265 118.386C44.0074 118.386 42.701 119.402 42.701 121.107V123.863C42.701 125.579 44.0074 126.585 45.6265 126.585C47.2233 126.585 48.5297 125.579 48.5297 123.863V121.107C48.5297 119.402 47.2233 118.386 45.6265 118.386ZM45.6265 125.105C44.9119 125.105 44.3871 124.732 44.3089 124.044C44.2866 123.852 44.2754 123.648 44.2754 123.411V121.57C44.2754 121.345 44.2866 121.13 44.3089 120.927C44.3871 120.215 44.9119 119.865 45.6265 119.865C46.3077 119.865 46.8548 120.215 46.933 120.927C46.9553 121.13 46.9665 121.345 46.9665 121.57V123.411C46.9665 123.648 46.9553 123.852 46.933 124.044C46.8548 124.732 46.3077 125.105 45.6265 125.105Z" fill="black"/>
<path d="M52.9106 118.386C51.2915 118.386 49.9851 119.402 49.9851 121.107V123.863C49.9851 125.579 51.2915 126.585 52.9106 126.585C54.5074 126.585 55.8138 125.579 55.8138 123.863V121.107C55.8138 119.402 54.5074 118.386 52.9106 118.386ZM52.9106 125.105C52.196 125.105 51.6712 124.732 51.593 124.044C51.5707 123.852 51.5595 123.648 51.5595 123.411V121.57C51.5595 121.345 51.5707 121.13 51.593 120.927C51.6712 120.215 52.196 119.865 52.9106 119.865C53.5918 119.865 54.1389 120.215 54.2171 120.927C54.2394 121.13 54.2505 121.345 54.2505 121.57V123.411C54.2505 123.648 54.2394 123.852 54.2171 124.044C54.1389 124.732 53.5918 125.105 52.9106 125.105Z" fill="black"/>
</g>
<path d="M91.4221 126.739H79.9001V129.759H86.7529L80.9919 143H84.4996L91.4221 127.227V126.739ZM99.3234 131.478C99.2537 132.43 98.673 133.36 98.0922 134.173L92.3312 142.257V143H102.761V139.98H97.465C99.5325 137.309 100.253 136.101 100.74 135.427C103.969 131.129 102.227 126.483 97.6276 126.483C94.4451 126.483 92.5403 128.342 92.5403 131.524H95.5137C95.5137 129.922 96.6055 129.457 97.5347 129.457C98.4871 129.457 99.3931 130.131 99.3234 131.478ZM111.332 126.46C107.964 126.46 105.246 128.551 105.246 132.059V137.727C105.246 141.258 107.964 143.325 111.332 143.325C114.654 143.325 117.372 141.258 117.372 137.727V132.059C117.372 128.551 114.654 126.46 111.332 126.46ZM111.332 140.282C109.845 140.282 108.754 139.516 108.591 138.098C108.544 137.704 108.521 137.285 108.521 136.798V133.011C108.521 132.547 108.544 132.105 108.591 131.687C108.754 130.224 109.845 129.503 111.332 129.503C112.749 129.503 113.887 130.224 114.05 131.687C114.096 132.105 114.12 132.547 114.12 133.011V136.798C114.12 137.285 114.096 137.704 114.05 138.098C113.887 139.516 112.749 140.282 111.332 140.282Z" fill="#2C2C2C"/>
<path d="M113.98 105.91C113.98 101.913 112.397 98.079 109.578 95.2524C106.759 92.4258 102.936 90.8379 98.9491 90.8379C94.9626 90.8379 91.1394 92.4258 88.3205 95.2524C85.5016 98.079 83.918 101.913 83.918 105.91L98.9491 105.91H113.98Z" fill="#EDEDED"/>
<path d="M112.365 66.3988L97.3885 99.0997C96.7677 100.455 97.4004 102.057 98.7798 102.622C100.159 103.188 101.73 102.489 102.234 101.086L114.393 67.2303C114.592 66.677 114.32 66.0647 113.776 65.8417C113.232 65.6187 112.61 65.8644 112.365 66.3988Z" fill="#2C2C2C"/>
<path d="M36 107.454C36 90.964 42.5505 75.1497 54.2104 63.4897C65.8704 51.8298 81.6847 45.2793 98.1743 45.2793V51.4967C83.3336 51.4967 69.1008 57.3922 58.6068 67.8861C48.1129 78.3801 42.2174 92.6129 42.2174 107.454H36Z" fill="#E15825"/>
<path d="M99.7985 45.2793C107.472 45.4377 115.049 47.0342 122.145 49.9876L119.783 55.7665C113.398 53.1085 106.578 51.6716 99.6719 51.529L99.7985 45.2793Z" fill="#F18200"/>
<path d="M123.079 50.5234C129.987 53.593 136.275 57.9442 141.623 63.3554L137.338 67.7525C132.525 62.8824 126.866 58.9663 120.648 56.2037L123.079 50.5234Z" fill="#FCD800"/>
<path d="M142.926 64.0059C148.092 69.5887 152.221 76.1286 155.105 83.2922L149.586 85.7294C146.991 79.2821 143.274 73.3963 138.625 68.3717L142.926 64.0059Z" fill="#A9D161"/>
<path d="M155.857 84.9805C158.787 92.1295 160.309 99.7398 160.347 107.424L153.9 107.453C153.866 100.537 152.496 93.6881 149.859 87.254L155.857 84.9805Z" fill="#009900"/>
<path d="M144.94 125.372L147.072 122.01C147.399 121.506 147.568 121.043 147.579 120.426C147.579 118.781 146.355 118 144.793 118C143.22 118 141.996 118.781 141.996 120.426C141.996 121.938 143.051 122.801 144.571 122.75C144.708 122.75 144.867 122.709 144.983 122.657L143.22 125.372H144.94ZM144.793 119.306C145.552 119.306 146.017 119.696 146.017 120.426C146.017 121.167 145.552 121.578 144.793 121.578C144.033 121.578 143.558 121.167 143.558 120.426C143.558 119.696 144.033 119.306 144.793 119.306Z" fill="#808080"/>
<path d="M151.499 118.051C149.968 118.051 148.734 118.977 148.734 120.529V123.038C148.734 124.601 149.968 125.516 151.499 125.516C153.008 125.516 154.242 124.601 154.242 123.038V120.529C154.242 118.977 153.008 118.051 151.499 118.051ZM151.499 124.169C150.823 124.169 150.327 123.829 150.253 123.202C150.232 123.028 150.222 122.842 150.222 122.627V120.951C150.222 120.745 150.232 120.55 150.253 120.365C150.327 119.717 150.823 119.398 151.499 119.398C152.142 119.398 152.659 119.717 152.733 120.365C152.754 120.55 152.765 120.745 152.765 120.951V122.627C152.765 122.842 152.754 123.028 152.733 123.202C152.659 123.829 152.142 124.169 151.499 124.169Z" fill="#808080"/>
<path d="M158.383 118.051C156.853 118.051 155.618 118.977 155.618 120.529V123.038C155.618 124.601 156.853 125.516 158.383 125.516C159.892 125.516 161.127 124.601 161.127 123.038V120.529C161.127 118.977 159.892 118.051 158.383 118.051ZM158.383 124.169C157.707 124.169 157.211 123.829 157.138 123.202C157.116 123.028 157.106 122.842 157.106 122.627V120.951C157.106 120.745 157.116 120.55 157.138 120.365C157.211 119.717 157.707 119.398 158.383 119.398C159.027 119.398 159.544 119.717 159.618 120.365C159.639 120.55 159.649 120.745 159.649 120.951V122.627C159.649 122.842 159.639 123.028 159.618 123.202C159.544 123.829 159.027 124.169 158.383 124.169Z" fill="#808080"/>
<path d="M133.466 60.3416H312.534C315.364 60.3416 317.658 62.6358 317.658 65.4659V192.534C317.658 195.364 315.364 197.658 312.534 197.658H133.466C130.636 197.658 128.342 195.364 128.342 192.534V65.4659C128.342 62.6358 130.636 60.3416 133.466 60.3416Z" fill="white" stroke="#B8C9E9" stroke-width="0.683234"/>
<path d="M147.83 179.404L146.822 177.472L145.694 175.6H144.194V175.804L147.158 180.592V184H148.55V180.592L151.502 175.804V175.6H150.014L148.922 177.412L147.878 179.404H147.83ZM157.166 181.084C157.166 179.056 155.606 178.048 154.058 178.072C152.546 178.096 151.058 179.092 151.058 181.084C151.058 183.1 152.582 184.108 154.106 184.108C155.63 184.108 157.166 183.1 157.166 181.084ZM152.354 181.084C152.354 179.86 153.194 179.248 154.058 179.224C154.946 179.2 155.858 179.824 155.858 181.084C155.858 182.32 154.994 182.944 154.13 182.956C153.242 182.968 152.354 182.344 152.354 181.084ZM162.468 178.216V181.528C162.468 182.452 161.832 183.052 161.004 183.052C160.236 183.052 159.744 182.488 159.756 181.564V178.216H158.436V181.564C158.436 182.98 159 184.096 160.596 184.096C161.412 184.096 162.204 183.844 162.6 183.064C162.6 184.312 163.656 184.156 164.4 184.024L164.388 183.172C163.836 183.232 163.776 183.04 163.776 182.344V178.216H162.468ZM167.084 179.056C167.024 178.12 166.088 177.976 165.236 178.168L165.248 179.056C165.872 179.02 165.872 179.284 165.872 179.8V184H167.168V180.652C167.168 179.716 167.864 179.212 168.644 179.212C169.064 179.212 169.448 179.332 169.796 179.56L170.12 178.432C169.748 178.156 169.268 178.012 168.788 178.024C168.08 178.024 167.312 178.384 167.084 179.056ZM173.37 182.296C173.466 183.736 174.738 184.144 176.022 184.144C177.306 184.144 178.542 183.592 178.542 182.308C178.542 180.94 177.366 180.736 176.154 180.58C175.254 180.472 174.786 180.364 174.774 179.884C174.738 179.368 175.362 179.08 175.962 179.08C176.574 179.08 177.27 179.26 177.27 179.836H178.422C178.458 178.684 177.294 178.096 175.962 178.096C174.702 178.096 173.502 178.672 173.502 179.908C173.538 181.216 174.87 181.348 176.058 181.504C176.814 181.6 177.354 181.756 177.354 182.284C177.318 182.992 176.61 183.172 175.974 183.172C175.35 183.172 174.69 182.896 174.654 182.296H173.37ZM179.752 176.428C179.752 176.956 180.16 177.22 180.556 177.208C180.94 177.196 181.324 176.944 181.324 176.428C181.324 175.924 180.94 175.66 180.544 175.66C180.148 175.66 179.752 175.912 179.752 176.428ZM181.192 178.276H179.884V184H181.192V178.276ZM192.063 184V180.616C192.099 179.224 191.691 178.096 190.107 178.096C189.219 178.096 188.319 178.42 187.995 179.188C187.767 178.48 187.251 178.096 186.243 178.096C185.451 178.096 184.599 178.456 184.275 179.164C184.311 177.952 183.231 178.012 182.463 178.204L182.475 179.008C183.051 178.972 183.087 179.188 183.087 179.86V184H184.395V180.664C184.395 179.752 184.983 179.176 185.799 179.164C186.615 179.152 186.987 179.752 186.987 180.652V184H188.271V180.652C188.283 179.74 188.823 179.164 189.627 179.152C190.395 179.14 190.755 179.752 190.743 180.616V184H192.063ZM197.66 178.216V181.528C197.66 182.452 197.024 183.052 196.196 183.052C195.428 183.052 194.936 182.488 194.948 181.564V178.216H193.628V181.564C193.628 182.98 194.192 184.096 195.788 184.096C196.604 184.096 197.396 183.844 197.792 183.064C197.792 184.312 198.848 184.156 199.592 184.024L199.58 183.172C199.028 183.232 198.968 183.04 198.968 182.344V178.216H197.66ZM200.8 175.216V181.936C200.8 183.868 201.616 184.324 203.392 184.036L203.344 183.028C202.348 183.184 202.096 182.884 202.096 181.924V175.216H200.8ZM208.073 183.028C208.109 184.168 208.817 184.168 209.729 184.012L209.705 183.268C209.081 183.328 209.105 182.98 209.105 182.44V180.16C209.105 178.564 207.857 178.072 206.453 178.072C205.685 178.072 204.905 178.228 204.317 178.528L204.509 179.464C205.229 179.104 207.833 178.6 207.833 180.124V180.7C207.317 180.412 206.681 180.268 206.117 180.268C204.845 180.268 203.837 180.928 203.873 182.308C203.873 183.436 204.893 184.108 205.949 184.108C206.765 184.108 207.689 183.796 208.073 183.028ZM207.833 182.02C207.701 182.752 206.897 183.076 206.213 183.076C205.685 183.076 205.157 182.812 205.157 182.236C205.157 181.528 205.697 181.156 206.333 181.144C206.849 181.132 207.401 181.288 207.833 181.54V182.02ZM212.646 176.44H211.494L211.362 178.228H210.186V179.08L211.362 179.164V181.792C211.362 184.06 212.91 184.516 214.89 183.904L214.758 182.92C213.57 183.34 212.646 183.244 212.646 181.768V179.164H214.65V178.228H212.646V176.44ZM218.605 178.084C217.033 178.084 215.641 179.056 215.605 180.988C215.545 182.944 216.949 184.168 218.857 184.132C219.589 184.132 220.369 183.94 221.041 183.64L220.873 182.668C220.189 182.968 219.493 183.064 218.773 183.028C217.717 183.028 216.889 182.404 216.889 181.348H221.161C221.545 179.428 220.633 178.084 218.605 178.084ZM218.593 179.092C219.421 179.092 220.141 179.548 220.105 180.424H216.913C217.093 179.512 217.729 179.092 218.593 179.092ZM226.799 183.112C226.799 184.084 227.591 184.168 228.491 184.012L228.467 183.112C227.807 183.112 227.867 182.86 227.867 182.2V175.216H226.559V178.576C226.031 178.264 225.467 178.132 224.951 178.132C223.463 178.132 222.215 179.308 222.215 181.096C222.215 182.716 223.151 184.156 224.879 184.12C225.731 184.12 226.415 183.796 226.799 182.944V183.112ZM226.583 181.348C226.583 182.224 225.983 182.956 225.083 182.956C224.015 182.956 223.511 182.092 223.511 181.096C223.511 179.92 224.255 179.284 225.155 179.272C225.611 179.26 226.115 179.404 226.583 179.728V181.348ZM268.938 181.612C268.974 183.376 270.69 184.192 272.334 184.156C273.906 184.156 275.646 183.46 275.646 181.612C275.646 179.68 274.086 179.344 272.382 179.152C271.41 179.02 270.462 178.9 270.462 177.952C270.462 177.004 271.458 176.692 272.226 176.692C273.054 176.692 274.002 176.98 274.062 177.88H275.382C275.346 176.164 273.834 175.444 272.238 175.444C270.606 175.444 269.082 176.26 269.082 177.988C269.082 179.668 270.606 180.16 272.142 180.292C273.114 180.388 274.254 180.496 274.254 181.6C274.254 182.644 273.198 182.908 272.31 182.908C271.398 182.908 270.366 182.56 270.306 181.612H268.938ZM282.504 180.136C282.192 178.72 280.956 178.036 279.696 178.048C278.196 178.06 276.66 179.092 276.66 181.084C276.66 183.088 278.196 184.096 279.708 184.096C280.98 184.096 282.24 183.376 282.54 181.912H281.292C281.028 182.62 280.38 182.968 279.732 182.968C278.856 182.968 277.956 182.332 277.956 181.084C277.956 179.86 278.868 179.212 279.756 179.212C280.428 179.212 281.04 179.512 281.292 180.136H282.504ZM289.553 181.084C289.553 179.056 287.993 178.048 286.445 178.072C284.933 178.096 283.445 179.092 283.445 181.084C283.445 183.1 284.969 184.108 286.493 184.108C288.017 184.108 289.553 183.1 289.553 181.084ZM284.741 181.084C284.741 179.86 285.581 179.248 286.445 179.224C287.333 179.2 288.245 179.824 288.245 181.084C288.245 182.32 287.381 182.944 286.517 182.956C285.629 182.968 284.741 182.344 284.741 181.084ZM292.311 179.056C292.251 178.12 291.315 177.976 290.463 178.168L290.475 179.056C291.099 179.02 291.099 179.284 291.099 179.8V184H292.395V180.652C292.395 179.716 293.091 179.212 293.871 179.212C294.291 179.212 294.675 179.332 295.023 179.56L295.347 178.432C294.975 178.156 294.495 178.012 294.015 178.024C293.307 178.024 292.539 178.384 292.311 179.056ZM298.808 178.084C297.236 178.084 295.844 179.056 295.808 180.988C295.748 182.944 297.152 184.168 299.06 184.132C299.792 184.132 300.572 183.94 301.244 183.64L301.076 182.668C300.392 182.968 299.696 183.064 298.976 183.028C297.92 183.028 297.092 182.404 297.092 181.348H301.364C301.748 179.428 300.836 178.084 298.808 178.084ZM298.796 179.092C299.624 179.092 300.344 179.548 300.308 180.424H297.116C297.296 179.512 297.932 179.092 298.796 179.092Z" fill="black"/>
<path d="M232.505 179.812C232.505 182.512 234.485 184.084 236.765 184.084C238.469 184.084 240.197 183.184 240.617 181.132H239.261C238.889 182.248 237.917 182.812 236.765 182.812C235.049 182.812 233.909 181.48 233.909 179.812C233.909 178.024 235.049 176.776 236.765 176.776C237.869 176.788 238.805 177.268 239.225 178.312H240.569C240.125 176.416 238.421 175.504 236.777 175.504C234.485 175.504 232.505 177.1 232.505 179.812ZM244.274 182.872V176.716H245.498V175.6H241.658V176.716H242.882V182.872H241.55V184H245.606V182.872H244.274ZM253.178 177.964C253.178 176.38 252.062 175.6 250.538 175.6H247.13V184H250.886C252.518 184 253.55 183.028 253.55 181.528C253.55 180.58 253.07 179.884 252.194 179.584C252.854 179.26 253.178 178.672 253.178 177.964ZM250.442 176.812C251.258 176.812 251.81 177.172 251.81 178C251.798 178.816 251.246 179.128 250.442 179.128H248.522V176.812H250.442ZM250.646 180.268C251.03 180.268 251.414 180.292 251.738 180.532C252.026 180.772 252.17 181.108 252.17 181.528C252.134 182.332 251.582 182.776 250.802 182.776H248.522V180.268H250.646ZM257.317 182.872V176.716H258.541V175.6H254.701V176.716H255.925V182.872H254.593V184H258.649V182.872H257.317ZM261.577 175.6H260.173V184H265.189V182.74H261.577V175.6Z" fill="#00A6CA"/>
<path d="M224.583 144.018C224.583 140.525 228.444 139.246 228.444 136.147C228.444 132.728 225.886 131.006 222.935 131.08C220.008 131.154 217.573 132.802 217.573 136.294H220.598C220.721 135.015 221.828 134.376 222.91 134.376C224.755 134.376 225.247 135.999 224.657 137.303C223.673 139.492 221.336 140.156 221.336 144.018H224.583ZM223.009 148.962C224.165 148.962 225.001 148.199 225.001 147.092C225.001 145.936 224.165 145.198 223.009 145.198C221.853 145.198 220.967 145.936 220.967 147.092C220.967 148.199 221.853 148.962 223.009 148.962Z" fill="#2C2C2C"/>
<path d="M161.395 135.429C161.395 119.402 167.945 104.032 179.605 92.6992C191.265 81.3666 207.079 75 223.569 75V81.0429C208.728 81.0429 194.495 86.7728 184.001 96.9722C173.507 107.172 167.612 121.005 167.612 135.429H161.395Z" fill="#EDEDED"/>
<path d="M225.197 75C232.87 75.1539 240.448 76.7057 247.543 79.5762L245.182 85.1928C238.796 82.6094 231.976 81.2128 225.07 81.0743L225.197 75Z" fill="#E0E0E0"/>
<path d="M248.47 80.0957C255.378 83.0791 261.666 87.3082 267.014 92.5674L262.728 96.841C257.916 92.1077 252.256 88.3015 246.039 85.6165L248.47 80.0957Z" fill="#D1D1D1"/>
<path d="M268.317 93.2012C273.482 98.6273 277.612 104.984 280.496 111.946L274.977 114.315C272.381 108.049 268.665 102.328 264.016 97.4444L268.317 93.2012Z" fill="#C0C0C0"/>
<path d="M281.252 113.587C284.181 120.535 285.704 127.932 285.741 135.4L279.294 135.429C279.26 128.707 277.89 122.05 275.254 115.797L281.252 113.587Z" fill="#9F9F9F"/>
<g opacity="0.5">
<path d="M161.398 152.404C161.454 153.927 162.582 154.864 164.045 154.864C165.809 154.864 166.792 153.566 166.792 152.167C166.792 151.073 166.222 150.035 164.972 149.82L166.669 147.067V146.83H161.7V148.173H164.458L163.018 150.678V150.915C164.022 150.734 165.184 150.915 165.217 152.179C165.206 152.901 164.748 153.408 164.022 153.408C163.352 153.408 162.906 153.07 162.861 152.404H161.398Z" fill="black"/>
<path d="M171.025 146.684C169.406 146.684 168.099 147.699 168.099 149.403V152.156C168.099 153.871 169.406 154.875 171.025 154.875C172.622 154.875 173.928 153.871 173.928 152.156V149.403C173.928 147.699 172.622 146.684 171.025 146.684ZM171.025 153.397C170.31 153.397 169.786 153.025 169.707 152.336C169.685 152.145 169.674 151.942 169.674 151.705V149.865C169.674 149.64 169.685 149.425 169.707 149.222C169.786 148.511 170.31 148.162 171.025 148.162C171.706 148.162 172.253 148.511 172.331 149.222C172.354 149.425 172.365 149.64 172.365 149.865V151.705C172.365 151.942 172.354 152.145 172.331 152.336C172.253 153.025 171.706 153.397 171.025 153.397Z" fill="black"/>
<path d="M178.309 146.684C176.69 146.684 175.384 147.699 175.384 149.403V152.156C175.384 153.871 176.69 154.875 178.309 154.875C179.906 154.875 181.212 153.871 181.212 152.156V149.403C181.212 147.699 179.906 146.684 178.309 146.684ZM178.309 153.397C177.594 153.397 177.07 153.025 176.991 152.336C176.969 152.145 176.958 151.942 176.958 151.705V149.865C176.958 149.64 176.969 149.425 176.991 149.222C177.07 148.511 177.594 148.162 178.309 148.162C178.99 148.162 179.537 148.511 179.615 149.222C179.638 149.425 179.649 149.64 179.649 149.865V151.705C179.649 151.942 179.638 152.145 179.615 152.336C179.537 153.025 178.99 153.397 178.309 153.397Z" fill="black"/>
</g>
<path d="M269.558 154.049L271.689 150.69C272.016 150.186 272.185 149.724 272.196 149.108C272.196 147.464 270.972 146.684 269.41 146.684C267.837 146.684 266.613 147.464 266.613 149.108C266.613 150.618 267.669 151.481 269.188 151.429C269.325 151.429 269.484 151.388 269.6 151.337L267.837 154.049H269.558ZM269.41 147.988C270.17 147.988 270.634 148.379 270.634 149.108C270.634 149.847 270.17 150.258 269.41 150.258C268.65 150.258 268.175 149.847 268.175 149.108C268.175 148.379 268.65 147.988 269.41 147.988Z" fill="#808080"/>
<path d="M276.116 146.735C274.586 146.735 273.351 147.659 273.351 149.211V151.717C273.351 153.278 274.586 154.193 276.116 154.193C277.625 154.193 278.86 153.278 278.86 151.717V149.211C278.86 147.659 277.625 146.735 276.116 146.735ZM276.116 152.847C275.44 152.847 274.944 152.508 274.871 151.881C274.849 151.707 274.839 151.522 274.839 151.306V149.632C274.839 149.426 274.849 149.231 274.871 149.046C274.944 148.399 275.44 148.081 276.116 148.081C276.76 148.081 277.277 148.399 277.35 149.046C277.372 149.231 277.382 149.426 277.382 149.632V151.306C277.382 151.522 277.372 151.707 277.35 151.881C277.277 152.508 276.76 152.847 276.116 152.847Z" fill="#808080"/>
<path d="M283 146.735C281.47 146.735 280.235 147.659 280.235 149.211V151.717C280.235 153.278 281.47 154.193 283 154.193C284.509 154.193 285.744 153.278 285.744 151.717V149.211C285.744 147.659 284.509 146.735 283 146.735ZM283 152.847C282.325 152.847 281.829 152.508 281.755 151.881C281.734 151.707 281.723 151.522 281.723 151.306V149.632C281.723 149.426 281.734 149.231 281.755 149.046C281.829 148.399 282.325 148.081 283 148.081C283.644 148.081 284.161 148.399 284.235 149.046C284.256 149.231 284.266 149.426 284.266 149.632V151.306C284.266 151.522 284.256 151.707 284.235 151.881C284.161 152.508 283.644 152.847 283 152.847Z" fill="#808080"/>
</svg>
