<svg width="334" height="210" viewBox="0 0 334 210" fill="none" xmlns="http://www.w3.org/2000/svg">
<rect width="334" height="210" fill="white"/>
<path d="M39.2338 185.751H36.9114V186.64H38.2133V189.842C38.2133 190.642 37.6767 191.082 36.9026 191.082C36.1285 191.082 35.5831 190.651 35.5831 189.842V189.165H34.6243V189.86C34.6243 191.205 35.6095 191.997 36.9026 191.997C38.2045 191.997 39.2338 191.205 39.2338 189.86V185.751ZM44.3447 190.634L44.9517 191.909H46.0161V191.777L43.1835 185.707H42.7085L39.8583 191.777V191.909H40.9315L41.5297 190.634H44.3447ZM42.946 187.308L44.0192 189.772H41.864L42.946 187.308ZM51.5063 191.918H51.8582V185.751H50.8378V187.995L50.9082 189.877L47.1695 185.734H46.8001V191.909H47.8117V189.675L47.7413 187.722L51.5063 191.918Z" fill="#ACACAC"/>
<path d="M85.1961 188.61H82.7506V186.649H85.4424V185.751H81.7302V191.909H82.7506V189.516H85.1961V188.61ZM90.2969 185.751H86.5495V191.909H90.3497V190.977H87.5787V189.182H90.1474V188.276H87.5787V186.649H90.2969V185.751ZM96.0601 187.484C96.0601 186.323 95.242 185.751 94.1248 185.751H91.6265V191.909H94.3799C95.5763 191.909 96.3328 191.197 96.3328 190.097C96.3328 189.402 95.9809 188.892 95.3387 188.672C95.8226 188.434 96.0601 188.003 96.0601 187.484ZM94.0544 186.64C94.6526 186.64 95.0573 186.904 95.0573 187.511C95.0485 188.109 94.6438 188.338 94.0544 188.338H92.6469V186.64H94.0544ZM94.204 189.173C94.4855 189.173 94.767 189.191 95.0045 189.367C95.2156 189.543 95.3212 189.789 95.3212 190.097C95.2948 190.686 94.8901 191.012 94.3183 191.012H92.6469V189.173H94.204Z" fill="#ACACAC"/>
<path d="M126.83 188.918L124.323 185.734H123.945V191.909H124.974V188.056L126.76 190.335H126.901L128.678 188.056V191.909H129.707V185.734H129.329L126.83 188.918ZM134.968 190.634L135.575 191.909H136.64V191.777L133.807 185.707H133.332L130.482 191.777V191.909H131.555L132.153 190.634H134.968ZM133.57 187.308L134.643 189.772H132.488L133.57 187.308ZM140.81 189.604C141.593 189.323 142.104 188.61 142.104 187.757C142.104 186.658 141.303 185.751 139.966 185.751H137.424V191.909H138.453V189.763H139.808L141.338 191.909H142.376V191.76L140.81 189.604ZM138.435 188.918V186.64H139.957C140.634 186.64 141.109 187.124 141.109 187.766C141.109 188.434 140.626 188.918 139.957 188.918H138.435Z" fill="#ACACAC"/>
<path d="M172.526 190.634L173.133 191.909H174.198V191.777L171.365 185.707H170.89L168.04 191.777V191.909H169.113L169.711 190.634H172.526ZM171.128 187.308L172.201 189.772H170.046L171.128 187.308ZM176.011 191.909V190.062H177.533C178.888 190.062 179.706 189.077 179.706 187.924C179.706 186.754 178.905 185.751 177.533 185.751H174.982V191.909H176.011ZM175.993 189.165V186.64H177.533C178.245 186.64 178.72 187.185 178.72 187.898C178.72 188.61 178.228 189.165 177.533 189.165H175.993ZM184.107 189.604C184.89 189.323 185.4 188.61 185.4 187.757C185.4 186.658 184.6 185.751 183.263 185.751H180.72V191.909H181.75V189.763H183.104L184.635 191.909H185.673V191.76L184.107 189.604ZM181.732 188.918V186.64H183.254C183.931 186.64 184.406 187.124 184.406 187.766C184.406 188.434 183.922 188.918 183.254 188.918H181.732Z" fill="#ACACAC"/>
<path d="M216.537 188.918L214.03 185.734H213.652V191.909H214.681V188.056L216.467 190.335H216.608L218.385 188.056V191.909H219.414V185.734H219.036L216.537 188.918ZM224.675 190.634L225.282 191.909H226.347V191.777L223.514 185.707H223.039L220.189 191.777V191.909H221.262L221.86 190.634H224.675ZM223.277 187.308L224.35 189.772H222.195L223.277 187.308ZM228.603 188.54L227.864 187.124L227.037 185.751H225.938V185.901L228.111 189.411V191.909H229.131V189.411L231.295 185.901V185.751H230.204L229.404 187.08L228.638 188.54H228.603Z" fill="#ACACAC"/>
<path d="M262.62 185.751H260.298V186.64H261.6V189.842C261.6 190.642 261.063 191.082 260.289 191.082C259.515 191.082 258.97 190.651 258.97 189.842V189.165H258.011V189.86C258.011 191.205 258.996 191.997 260.289 191.997C261.591 191.997 262.62 191.205 262.62 189.86V185.751ZM266.436 191.988C267.747 191.988 268.82 191.214 268.82 189.842V185.751H267.809V189.816C267.809 190.625 267.21 191.073 266.436 191.073C265.653 191.073 265.046 190.625 265.046 189.816V185.751H264.026V189.842C264.026 191.214 265.108 191.988 266.436 191.988ZM274.996 191.918H275.348V185.751H274.328V187.995L274.398 189.877L270.659 185.734H270.29V191.909H271.302V189.675L271.231 187.722L274.996 191.918Z" fill="#ACACAC"/>
<path d="M305.718 185.751H303.396V186.64H304.698V189.842C304.698 190.642 304.161 191.082 303.387 191.082C302.613 191.082 302.067 190.651 302.067 189.842V189.165H301.109V189.86C301.109 191.205 302.094 191.997 303.387 191.997C304.689 191.997 305.718 191.205 305.718 189.86V185.751ZM309.534 191.988C310.845 191.988 311.918 191.214 311.918 189.842V185.751H310.906V189.816C310.906 190.625 310.308 191.073 309.534 191.073C308.751 191.073 308.144 190.625 308.144 189.816V185.751H307.124V189.842C307.124 191.214 308.206 191.988 309.534 191.988ZM314.417 185.751H313.388V191.909H317.065V190.986H314.417V185.751Z" fill="#ACACAC"/>
<path d="M312.27 20.3984H43.1483V178.751H312.27V20.3984Z" fill="#E7EFFC"/>
<path d="M44.0273 20.3984L44.0274 178.751" stroke="#006685" stroke-opacity="0.2" stroke-width="0.879676" stroke-dasharray="1.76 1.76"/>
<path d="M88.8828 20.3984L88.8828 178.751" stroke="#006685" stroke-opacity="0.2" stroke-width="0.879676" stroke-dasharray="1.76 1.76"/>
<path d="M133.734 20.3984L133.734 178.751" stroke="#006685" stroke-opacity="0.2" stroke-width="0.879676" stroke-dasharray="1.76 1.76"/>
<path d="M178.59 20.3984L178.59 178.751" stroke="#006685" stroke-opacity="0.2" stroke-width="0.879676" stroke-dasharray="1.76 1.76"/>
<path d="M222.562 20.3984L222.563 178.751" stroke="#006685" stroke-opacity="0.2" stroke-width="0.879676" stroke-dasharray="1.76 1.76"/>
<path d="M267.414 20.3984L267.414 178.751" stroke="#006685" stroke-opacity="0.2" stroke-width="0.879676" stroke-dasharray="1.76 1.76"/>
<path d="M312.27 20.3984L312.27 178.751" stroke="#006685" stroke-opacity="0.2" stroke-width="0.879676" stroke-dasharray="1.76 1.76"/>
<path d="M17.0118 178.74C17.0822 179.901 17.9442 180.578 19.0702 180.578C20.4249 180.578 21.2078 179.655 21.2078 178.511C21.2078 177.605 20.6185 176.743 19.598 176.699L21.1551 174.482V174.324H17.2581V175.151H19.7388L18.3489 177.218V177.394C19.1934 177.183 20.2402 177.491 20.2402 178.52C20.2402 179.25 19.7652 179.69 19.0526 179.69C18.4193 179.69 17.9794 179.364 17.9179 178.74H17.0118ZM24.5697 174.218C23.2942 174.218 22.2738 175.019 22.2738 176.338V178.467C22.2738 179.795 23.2942 180.587 24.5697 180.587C25.8277 180.587 26.8481 179.795 26.8481 178.467V176.338C26.8481 175.019 25.8277 174.218 24.5697 174.218ZM24.5697 179.681C23.9363 179.681 23.4349 179.373 23.303 178.784C23.2678 178.608 23.2414 178.414 23.2414 178.203V176.611C23.2414 176.4 23.2678 176.206 23.303 176.03C23.4349 175.432 23.9363 175.115 24.5697 175.115C25.2031 175.115 25.6957 175.432 25.8277 176.03C25.8628 176.206 25.8892 176.4 25.8892 176.611V178.203C25.8892 178.414 25.8628 178.608 25.8277 178.784C25.6957 179.373 25.2031 179.681 24.5697 179.681ZM30.3426 174.218C29.0671 174.218 28.0466 175.019 28.0466 176.338V178.467C28.0466 179.795 29.0671 180.587 30.3426 180.587C31.6005 180.587 32.6209 179.795 32.6209 178.467V176.338C32.6209 175.019 31.6005 174.218 30.3426 174.218ZM30.3426 179.681C29.7092 179.681 29.2078 179.373 29.0759 178.784C29.0407 178.608 29.0143 178.414 29.0143 178.203V176.611C29.0143 176.4 29.0407 176.206 29.0759 176.03C29.2078 175.432 29.7092 175.115 30.3426 175.115C30.976 175.115 31.4686 175.432 31.6005 176.03C31.6357 176.206 31.6621 176.4 31.6621 176.611V178.203C31.6621 178.414 31.6357 178.608 31.6005 178.784C31.4686 179.373 30.976 179.681 30.3426 179.681Z" fill="#ACACAC"/>
<path d="M21.0939 153.667H21.6921V152.832H21.0939V148.803H20.0471L17.1353 153.21V153.667H20.1614V154.96H21.0939V153.667ZM20.2758 149.999L20.223 151.503V152.867H18.3405L20.2582 149.999H20.2758ZM25.015 148.706C23.7395 148.706 22.7191 149.506 22.7191 150.826V152.955C22.7191 154.283 23.7395 155.075 25.015 155.075C26.273 155.075 27.2934 154.283 27.2934 152.955V150.826C27.2934 149.506 26.273 148.706 25.015 148.706ZM25.015 154.169C24.3817 154.169 23.8802 153.861 23.7483 153.271C23.7131 153.096 23.6867 152.902 23.6867 152.691V151.099C23.6867 150.888 23.7131 150.694 23.7483 150.518C23.8802 149.92 24.3817 149.603 25.015 149.603C25.6484 149.603 26.141 149.92 26.273 150.518C26.3082 150.694 26.3345 150.888 26.3345 151.099V152.691C26.3345 152.902 26.3082 153.096 26.273 153.271C26.141 153.861 25.6484 154.169 25.015 154.169ZM30.7879 148.706C29.5124 148.706 28.4919 149.506 28.4919 150.826V152.955C28.4919 154.283 29.5124 155.075 30.7879 155.075C32.0458 155.075 33.0663 154.283 33.0663 152.955V150.826C33.0663 149.506 32.0458 148.706 30.7879 148.706ZM30.7879 154.169C30.1545 154.169 29.6531 153.861 29.5212 153.271C29.486 153.096 29.4596 152.902 29.4596 152.691V151.099C29.4596 150.888 29.486 150.694 29.5212 150.518C29.6531 149.92 30.1545 149.603 30.7879 149.603C31.4213 149.603 31.9139 149.92 32.0458 150.518C32.081 150.694 32.1074 150.888 32.1074 151.099V152.691C32.1074 152.902 32.081 153.096 32.0458 153.271C31.9139 153.861 31.4213 154.169 30.7879 154.169Z" fill="#ACACAC"/>
<path d="M18.0487 123.273H20.8461V122.411H17.213V125.489C17.6617 125.384 18.2598 125.287 18.814 125.314C19.6057 125.358 20.2831 125.665 20.2655 126.624C20.2391 127.46 19.6673 127.821 19.0516 127.821C18.4446 127.821 17.9959 127.513 17.9344 126.871H16.9931C17.0899 128.014 17.9168 128.674 19.0252 128.674C20.459 128.674 21.2156 127.706 21.2156 126.598C21.2156 125.094 20.1687 124.575 18.8756 124.548C18.5941 124.548 18.3214 124.575 18.0487 124.636V123.273ZM24.515 122.314C23.2395 122.314 22.2191 123.114 22.2191 124.434V126.563C22.2191 127.891 23.2395 128.683 24.515 128.683C25.773 128.683 26.7934 127.891 26.7934 126.563V124.434C26.7934 123.114 25.773 122.314 24.515 122.314ZM24.515 127.777C23.8817 127.777 23.3802 127.469 23.2483 126.879C23.2131 126.703 23.1867 126.51 23.1867 126.299V124.707C23.1867 124.495 23.2131 124.302 23.2483 124.126C23.3802 123.528 23.8817 123.211 24.515 123.211C25.1484 123.211 25.641 123.528 25.773 124.126C25.8082 124.302 25.8345 124.495 25.8345 124.707V126.299C25.8345 126.51 25.8082 126.703 25.773 126.879C25.641 127.469 25.1484 127.777 24.515 127.777ZM30.2879 122.314C29.0124 122.314 27.9919 123.114 27.9919 124.434V126.563C27.9919 127.891 29.0124 128.683 30.2879 128.683C31.5458 128.683 32.5663 127.891 32.5663 126.563V124.434C32.5663 123.114 31.5458 122.314 30.2879 122.314ZM30.2879 127.777C29.6545 127.777 29.1531 127.469 29.0212 126.879C28.986 126.703 28.9596 126.51 28.9596 126.299V124.707C28.9596 124.495 28.986 124.302 29.0212 124.126C29.1531 123.528 29.6545 123.211 30.2879 123.211C30.9213 123.211 31.4139 123.528 31.5458 124.126C31.581 124.302 31.6074 124.495 31.6074 124.707V126.299C31.6074 126.51 31.581 126.703 31.5458 126.879C31.4139 127.469 30.9213 127.777 30.2879 127.777Z" fill="#ACACAC"/>
<path d="M19.5113 95.9834L17.6464 98.9391C17.4089 99.2997 17.2505 99.766 17.2505 100.215C17.2505 101.587 18.2621 102.264 19.5289 102.264C20.8044 102.264 21.816 101.587 21.816 100.215C21.816 98.9391 20.91 98.2089 19.696 98.2353C19.5025 98.2353 19.3178 98.2793 19.1418 98.3761L20.6461 95.9834H19.5113ZM19.5289 101.393C18.7899 101.393 18.2533 100.98 18.2533 100.215C18.2533 99.4493 18.7812 99.027 19.5289 99.027C20.2678 99.027 20.8044 99.4493 20.8044 100.215C20.8044 100.98 20.2766 101.393 19.5289 101.393ZM25.015 95.9218C23.7395 95.9218 22.7191 96.7223 22.7191 98.0418V100.171C22.7191 101.499 23.7395 102.291 25.015 102.291C26.273 102.291 27.2934 101.499 27.2934 100.171V98.0418C27.2934 96.7223 26.273 95.9218 25.015 95.9218ZM25.015 101.385C24.3817 101.385 23.8802 101.077 23.7483 100.487C23.7131 100.311 23.6867 100.118 23.6867 99.9067V98.3145C23.6867 98.1034 23.7131 97.9098 23.7483 97.7339C23.8802 97.1357 24.3817 96.819 25.015 96.819C25.6484 96.819 26.141 97.1357 26.273 97.7339C26.3082 97.9098 26.3345 98.1034 26.3345 98.3145V99.9067C26.3345 100.118 26.3082 100.311 26.273 100.487C26.141 101.077 25.6484 101.385 25.015 101.385ZM30.7879 95.9218C29.5124 95.9218 28.4919 96.7223 28.4919 98.0418V100.171C28.4919 101.499 29.5124 102.291 30.7879 102.291C32.0458 102.291 33.0663 101.499 33.0663 100.171V98.0418C33.0663 96.7223 32.0458 95.9218 30.7879 95.9218ZM30.7879 101.385C30.1545 101.385 29.6531 101.077 29.5212 100.487C29.486 100.311 29.4596 100.118 29.4596 99.9067V98.3145C29.4596 98.1034 29.486 97.9098 29.5212 97.7339C29.6531 97.1357 30.1545 96.819 30.7879 96.819C31.4213 96.819 31.9139 97.1357 32.0458 97.7339C32.081 97.9098 32.1074 98.1034 32.1074 98.3145V99.9067C32.1074 100.118 32.081 100.311 32.0458 100.487C31.9139 101.077 31.4213 101.385 30.7879 101.385Z" fill="#ACACAC"/>
<path d="M21.8975 69.6264H17.6399V70.5325H20.5076L18.1237 75.7842H19.1617L21.8975 69.776V69.6264ZM24.8822 69.5297C23.6067 69.5297 22.5863 70.3302 22.5863 71.6497V73.7785C22.5863 75.1068 23.6067 75.8985 24.8822 75.8985C26.1402 75.8985 27.1606 75.1068 27.1606 73.7785V71.6497C27.1606 70.3302 26.1402 69.5297 24.8822 69.5297ZM24.8822 74.9925C24.2489 74.9925 23.7474 74.6846 23.6155 74.0952C23.5803 73.9193 23.5539 73.7257 23.5539 73.5146V71.9224C23.5539 71.7113 23.5803 71.5178 23.6155 71.3418C23.7474 70.7436 24.2489 70.427 24.8822 70.427C25.5156 70.427 26.0082 70.7436 26.1402 71.3418C26.1753 71.5178 26.2017 71.7113 26.2017 71.9224V73.5146C26.2017 73.7257 26.1753 73.9193 26.1402 74.0952C26.0082 74.6846 25.5156 74.9925 24.8822 74.9925ZM30.6551 69.5297C29.3796 69.5297 28.3591 70.3302 28.3591 71.6497V73.7785C28.3591 75.1068 29.3796 75.8985 30.6551 75.8985C31.913 75.8985 32.9335 75.1068 32.9335 73.7785V71.6497C32.9335 70.3302 31.913 69.5297 30.6551 69.5297ZM30.6551 74.9925C30.0217 74.9925 29.5203 74.6846 29.3884 74.0952C29.3532 73.9193 29.3268 73.7257 29.3268 73.5146V71.9224C29.3268 71.7113 29.3532 71.5178 29.3884 71.3418C29.5203 70.7436 30.0217 70.427 30.6551 70.427C31.2885 70.427 31.7811 70.7436 31.913 71.3418C31.9482 71.5178 31.9746 71.7113 31.9746 71.9224V73.5146C31.9746 73.7257 31.9482 73.9193 31.913 74.0952C31.7811 74.6846 31.2885 74.9925 30.6551 74.9925Z" fill="#ACACAC"/>
<path d="M20.5802 45.9257C21.0025 45.6706 21.3016 45.2659 21.3016 44.7381C21.3016 43.8408 20.545 43.1371 19.4015 43.1371C18.2403 43.1371 17.4838 43.8672 17.5102 44.7557C17.5102 45.2835 17.7917 45.6794 18.2051 45.9257C17.5453 46.2336 17.1143 46.8054 17.1143 47.5531C17.1143 48.6351 18.0204 49.4884 19.4015 49.4884C20.7913 49.4884 21.6798 48.6351 21.6798 47.5355C21.671 46.7966 21.24 46.2336 20.5802 45.9257ZM19.3927 45.6178C18.8561 45.6178 18.4074 45.2923 18.4074 44.7909C18.4074 44.2719 18.8385 43.9464 19.4015 43.9464C19.9381 43.9464 20.3867 44.2631 20.3867 44.7821C20.3867 45.3011 19.9557 45.6178 19.3927 45.6178ZM19.4015 48.6263C18.6977 48.6263 18.1171 48.1952 18.1171 47.5267C18.1171 46.8317 18.6889 46.3743 19.3927 46.3743C20.1052 46.3743 20.6858 46.8142 20.6858 47.5091C20.6858 48.1864 20.1052 48.6263 19.4015 48.6263ZM25.015 43.1371C23.7395 43.1371 22.7191 43.9376 22.7191 45.2571V47.3859C22.7191 48.7143 23.7395 49.506 25.015 49.506C26.273 49.506 27.2934 48.7143 27.2934 47.3859V45.2571C27.2934 43.9376 26.273 43.1371 25.015 43.1371ZM25.015 48.5999C24.3817 48.5999 23.8802 48.292 23.7483 47.7026C23.7131 47.5267 23.6867 47.3332 23.6867 47.122V45.5298C23.6867 45.3187 23.7131 45.1252 23.7483 44.9492C23.8802 44.3511 24.3817 44.0344 25.015 44.0344C25.6484 44.0344 26.141 44.3511 26.273 44.9492C26.3082 45.1252 26.3345 45.3187 26.3345 45.5298V47.122C26.3345 47.3332 26.3082 47.5267 26.273 47.7026C26.141 48.292 25.6484 48.5999 25.015 48.5999ZM30.7879 43.1371C29.5124 43.1371 28.4919 43.9376 28.4919 45.2571V47.3859C28.4919 48.7143 29.5124 49.506 30.7879 49.506C32.0458 49.506 33.0663 48.7143 33.0663 47.3859V45.2571C33.0663 43.9376 32.0458 43.1371 30.7879 43.1371ZM30.7879 48.5999C30.1545 48.5999 29.6531 48.292 29.5212 47.7026C29.486 47.5267 29.4596 47.3332 29.4596 47.122V45.5298C29.4596 45.3187 29.486 45.1252 29.5212 44.9492C29.6531 44.3511 30.1545 44.0344 30.7879 44.0344C31.4213 44.0344 31.9139 44.3511 32.0458 44.9492C32.081 45.1252 32.1074 45.3187 32.1074 45.5298V47.122C32.1074 47.3332 32.081 47.5267 32.0458 47.7026C31.9139 48.292 31.4213 48.5999 30.7879 48.5999Z" fill="#ACACAC"/>
<path d="M19.4931 23L21.3492 20.0531C21.6219 19.6396 21.7626 19.2438 21.7626 18.7512C21.7626 17.3789 20.751 16.7015 19.4843 16.7015C18.2087 16.7015 17.1971 17.3789 17.1971 18.7512C17.1971 20.0267 18.112 20.7568 19.3435 20.7304C19.5459 20.7304 19.757 20.6777 19.9241 20.5809L18.3759 23H19.4931ZM19.4843 17.5724C20.2232 17.5724 20.751 17.9858 20.751 18.7512C20.751 19.5165 20.2232 19.9387 19.4843 19.9387C18.7453 19.9387 18.2087 19.5165 18.2087 18.7512C18.2087 17.9858 18.7365 17.5724 19.4843 17.5724ZM25.015 16.7455C23.7395 16.7455 22.7191 17.546 22.7191 18.8655V20.9943C22.7191 22.3226 23.7395 23.1144 25.015 23.1144C26.273 23.1144 27.2934 22.3226 27.2934 20.9943V18.8655C27.2934 17.546 26.273 16.7455 25.015 16.7455ZM25.015 22.2083C24.3817 22.2083 23.8802 21.9004 23.7483 21.311C23.7131 21.1351 23.6867 20.9416 23.6867 20.7304V19.1382C23.6867 18.9271 23.7131 18.7336 23.7483 18.5576C23.8802 17.9595 24.3817 17.6428 25.015 17.6428C25.6484 17.6428 26.141 17.9595 26.273 18.5576C26.3082 18.7336 26.3345 18.9271 26.3345 19.1382V20.7304C26.3345 20.9416 26.3082 21.1351 26.273 21.311C26.141 21.9004 25.6484 22.2083 25.015 22.2083ZM30.7879 16.7455C29.5124 16.7455 28.4919 17.546 28.4919 18.8655V20.9943C28.4919 22.3226 29.5124 23.1144 30.7879 23.1144C32.0458 23.1144 33.0663 22.3226 33.0663 20.9943V18.8655C33.0663 17.546 32.0458 16.7455 30.7879 16.7455ZM30.7879 22.2083C30.1545 22.2083 29.6531 21.9004 29.5212 21.311C29.486 21.1351 29.4596 20.9416 29.4596 20.7304V19.1382C29.4596 18.9271 29.486 18.7336 29.5212 18.5576C29.6531 17.9595 30.1545 17.6428 30.7879 17.6428C31.4213 17.6428 31.9139 17.9595 32.0458 18.5576C32.081 18.7336 32.1074 18.9271 32.1074 19.1382V20.7304C32.1074 20.9416 32.081 21.1351 32.0458 21.311C31.9139 21.9004 31.4213 22.2083 30.7879 22.2083Z" fill="#ACACAC"/>
<path d="M44.0273 20.3984L312.269 20.3984" stroke="#006685" stroke-opacity="0.2" stroke-width="0.879676" stroke-dasharray="1.76 1.76"/>
<path d="M44.0273 46.7905L312.269 46.7905" stroke="#006685" stroke-opacity="0.2" stroke-width="0.879676" stroke-dasharray="1.76 1.76"/>
<path d="M44.0273 73.1826L312.269 73.1826" stroke="#006685" stroke-opacity="0.2" stroke-width="0.879676" stroke-dasharray="1.76 1.76"/>
<path d="M44.0273 99.5747L312.269 99.5747" stroke="#006685" stroke-opacity="0.2" stroke-width="0.879676" stroke-dasharray="1.76 1.76"/>
<path d="M44.0273 125.967L312.269 125.967" stroke="#006685" stroke-opacity="0.2" stroke-width="0.879676" stroke-dasharray="1.76 1.76"/>
<path d="M44.0273 152.359L312.269 152.359" stroke="#006685" stroke-opacity="0.2" stroke-width="0.879676" stroke-dasharray="1.76 1.76"/>
<path d="M44.0273 178.751L312.269 178.751" stroke="#006685" stroke-opacity="0.2" stroke-width="0.879676" stroke-dasharray="1.76 1.76"/>
<path d="M43.1484 178.751H312.27" stroke="#9EBFD2" stroke-width="1.40748"/>
<ellipse cx="175.954" cy="66.1448" rx="7.0358" ry="7.03783" fill="#7D7D7D"/>
<path d="M176.715 68.1114C176.715 66.3933 178.589 65.7642 178.589 64.2397C178.589 62.5579 177.348 61.7109 175.915 61.7472C174.494 61.7835 173.312 62.5942 173.312 64.3123H174.781C174.841 63.6831 175.378 63.3685 175.903 63.3685C176.799 63.3685 177.037 64.1671 176.751 64.8083C176.273 65.8852 175.139 66.2118 175.139 68.1114H176.715ZM175.951 70.5434C176.512 70.5434 176.918 70.1683 176.918 69.6238C176.918 69.0552 176.512 68.6922 175.951 68.6922C175.39 68.6922 174.96 69.0552 174.96 69.6238C174.96 70.1683 175.39 70.5434 175.951 70.5434Z" fill="white"/>
<ellipse cx="175.075" cy="133.005" rx="7.0358" ry="7.03783" fill="#7D7D7D"/>
<path d="M175.836 134.971C175.836 133.253 177.71 132.624 177.71 131.1C177.71 129.418 176.469 128.571 175.036 128.607C173.616 128.643 172.434 129.454 172.434 131.172H173.902C173.962 130.543 174.499 130.228 175.024 130.228C175.92 130.228 176.158 131.027 175.872 131.668C175.394 132.745 174.26 133.072 174.26 134.971H175.836ZM175.072 137.403C175.633 137.403 176.039 137.028 176.039 136.484C176.039 135.915 175.633 135.552 175.072 135.552C174.511 135.552 174.081 135.915 174.081 136.484C174.081 137.028 174.511 137.403 175.072 137.403Z" fill="white"/>
<path d="M137.258 99.5745L168.919 70.5435" stroke="#3BB012" stroke-width="1.75935" stroke-dasharray="3.52 3.52"/>
<path d="M168.039 128.606L136.378 99.5752" stroke="#D74025" stroke-width="1.75935" stroke-dasharray="3.52 3.52"/>
<ellipse cx="136.042" cy="99.2363" rx="8.4565" ry="8.45894" fill="#7D7D7D"/>
<path d="M136.837 101.934C136.837 99.8726 139.024 99.1176 139.024 97.2882C139.024 95.27 137.575 94.2537 135.904 94.2972C134.246 94.3408 132.867 95.3136 132.867 97.3753H134.58C134.65 96.6203 135.277 96.2428 135.89 96.2428C136.934 96.2428 137.213 97.2011 136.879 97.9706C136.321 99.2628 134.998 99.6548 134.998 101.934H136.837ZM135.945 104.853C136.6 104.853 137.074 104.403 137.074 103.749C137.074 103.067 136.6 102.631 135.945 102.631C135.291 102.631 134.789 103.067 134.789 103.749C134.789 104.403 135.291 104.853 135.945 104.853Z" fill="white"/>
</svg>
