<svg width="18" height="18" viewBox="0 0 18 18" fill="none" xmlns="http://www.w3.org/2000/svg">
<path fill-rule="evenodd" clip-rule="evenodd" d="M17.0711 8.99993C17.0711 9.55221 16.6234 9.99993 16.0711 9.99993H1.92893C1.37665 9.99993 0.928933 9.55221 0.928932 8.99993C0.928932 8.44765 1.37665 7.99993 1.92893 7.99993H16.0711C16.6234 7.99993 17.0711 8.44765 17.0711 8.99993Z" fill="#00A6CA"/>
<path fill-rule="evenodd" clip-rule="evenodd" d="M9.47258 2.40144C9.86311 2.01092 10.4963 2.01092 10.8868 2.40144L16.7794 8.294C17.1699 8.68452 17.1699 9.31769 16.7794 9.70821L10.8868 15.6008C10.4963 15.9913 9.8631 15.9913 9.47258 15.6008C9.08206 15.2102 9.08206 14.5771 9.47258 14.1866L14.658 9.00111L9.47258 3.81566C9.08206 3.42513 9.08206 2.79197 9.47258 2.40144Z" fill="#00A6CA"/>
</svg>
