<svg width="183" height="89" viewBox="0 0 183 89" fill="none" xmlns="http://www.w3.org/2000/svg">
<path d="M0 88.5137C2.10992e-06 65.0384 9.58748 42.5246 26.6533 25.9251C43.7191 9.32552 66.8653 -2.7994e-07 91 0V8.85137C69.2788 8.85137 48.4472 17.2443 33.088 32.1839C17.7287 47.1235 9.1 67.3859 9.1 88.5137H0Z" fill="#EDEDED"/>
<path d="M93.3767 0C104.608 0.225466 115.698 2.4984 126.083 6.70298L122.627 14.93C113.281 11.1459 103.299 9.10025 93.1914 8.89733L93.3767 0Z" fill="#E0E0E0"/>
<path d="M127.448 7.46484C137.559 11.8348 146.763 18.0293 154.589 25.7329L148.318 31.9927C141.273 25.0595 132.99 19.4844 123.891 15.5515L127.448 7.46484Z" fill="#D1D1D1"/>
<path d="M156.498 26.6602C164.059 34.6081 170.103 43.9185 174.324 54.117L166.246 57.5866C162.447 48.408 157.007 40.0287 150.203 32.8755L156.498 26.6602Z" fill="#C0C0C0"/>
<path d="M175.431 56.5205C179.719 66.6981 181.947 77.5325 182.002 88.4718L172.566 88.5134C172.516 78.668 170.511 68.917 166.652 59.7572L175.431 56.5205Z" fill="#9F9F9F"/>
</svg>
