<svg width="13" height="12" viewBox="0 0 13 12" fill="none" xmlns="http://www.w3.org/2000/svg">
<path fill-rule="evenodd" clip-rule="evenodd" d="M11.7071 0.292893C12.0976 0.683417 12.0976 1.31658 11.7071 1.70711L1.70711 11.7071C1.31658 12.0976 0.683417 12.0976 0.292893 11.7071C-0.0976311 11.3166 -0.0976311 10.6834 0.292893 10.2929L10.2929 0.292893C10.6834 -0.0976311 11.3166 -0.0976311 11.7071 0.292893Z" fill="#A9D161"/>
<path fill-rule="evenodd" clip-rule="evenodd" d="M1.66797 1C1.66797 0.447715 2.11568 0 2.66797 0H11.0013C11.5536 0 12.0013 0.447715 12.0013 1V9.33333C12.0013 9.88562 11.5536 10.3333 11.0013 10.3333C10.449 10.3333 10.0013 9.88562 10.0013 9.33333V2H2.66797C2.11568 2 1.66797 1.55228 1.66797 1Z" fill="#A9D161"/>
</svg>
